<svg width="103" height="38" viewBox="0 0 103 38" fill="none" xmlns="http://www.w3.org/2000/svg">
<path d="M36 35.1172L25.944 25.0611C28.3605 22.1601 29.5655 18.439 29.3084 14.6721C29.0513 10.9052 27.3518 7.38241 24.5635 4.83662C21.7751 2.29083 18.1127 0.918021 14.338 1.00379C10.5633 1.08956 6.96692 2.6273 4.29711 5.29711C1.6273 7.96692 0.0895584 11.5633 0.00378988 15.338C-0.0819787 19.1127 1.29083 22.7751 3.83662 25.5635C6.38241 28.3518 9.90519 30.0513 13.6721 30.3084C17.439 30.5655 21.1601 29.3605 24.0611 26.944L34.1172 37L36 35.1172ZM2.71076 15.6949C2.71076 13.3246 3.41361 11.0076 4.73045 9.03686C6.04728 7.06608 7.91894 5.53004 10.1088 4.62299C12.2986 3.71594 14.7082 3.47862 17.0329 3.94103C19.3576 4.40344 21.4929 5.54482 23.1689 7.22083C24.845 8.89684 25.9863 11.0322 26.4487 13.3569C26.9112 15.6816 26.6738 18.0912 25.7668 20.281C24.8597 22.4708 23.3237 24.3425 21.3529 25.6593C19.3821 26.9762 17.0651 27.679 14.6949 27.679C11.5176 27.6755 8.47142 26.4117 6.22472 24.1651C3.97802 21.9184 2.71428 18.8722 2.71076 15.6949Z" fill="black"/>
<path d="M84 1C74.0586 1 66 9.0586 66 19C66 28.9414 74.0586 37 84 37C93.9414 37 102 28.9414 102 19C102 9.0586 93.9414 1 84 1Z" stroke="black" stroke-width="2" stroke-linecap="round" stroke-linejoin="round"/>
<path d="M70 30C70 30 74.0373 24.9286 83.9991 24.9286C93.9609 24.9286 98 30 98 30H70ZM83.9991 18.6917C85.4402 18.6917 86.8223 18.1285 87.8413 17.126C88.8603 16.1234 89.4328 14.7637 89.4328 13.3459C89.4328 11.9281 88.8603 10.5683 87.8413 9.56577C86.8223 8.56322 85.4402 8 83.9991 8C82.558 8 81.1759 8.56322 80.1569 9.56577C79.1378 10.5683 78.5654 11.9281 78.5654 13.3459C78.5654 14.7637 79.1378 16.1234 80.1569 17.126C81.1759 18.1285 82.558 18.6917 83.9991 18.6917V18.6917Z" stroke="black" stroke-width="2" stroke-linecap="round" stroke-linejoin="round"/>
</svg>
