<svg width="443" height="358" viewBox="0 0 443 358" fill="none" xmlns="http://www.w3.org/2000/svg">
<path opacity="0.1" d="M53.2894 41.7354C57.3267 17.6466 78.1768 6.10352e-05 102.602 6.10352e-05H392.284C419.898 6.10352e-05 442.284 22.3858 442.284 50.0001V308C442.284 335.614 419.898 358 392.284 358H59.3614C28.4461 358 4.93915 330.225 10.0492 299.735L53.2894 41.7354Z" fill="#68C9BA"/>
<path d="M410.013 94.0294C435.737 123.207 405.363 151.381 351.902 152.141C245.615 145.137 221.63 51.0073 229.663 29.9027C237.696 8.79808 261.614 8.22203 297.053 51.215C332.492 94.208 377.857 57.5572 410.013 94.0294Z" stroke="white" stroke-width="1.5"/>
<ellipse cx="305.633" cy="59.1502" rx="16.8481" ry="9.95569" transform="rotate(20.7184 305.633 59.1502)" stroke="white" stroke-width="1.5"/>
</svg>
