<svg width="443" height="358" viewBox="0 0 443 358" fill="none" xmlns="http://www.w3.org/2000/svg">
<path opacity="0.1" d="M53.289 41.7355C57.3262 17.6466 78.1764 0.00012207 102.601 0.00012207H392.284C419.898 0.00012207 442.284 22.3859 442.284 50.0001V308C442.284 335.614 419.898 358 392.284 358H59.361C28.4457 358 4.93871 330.226 10.0488 299.736L53.289 41.7355Z" fill="#2D9CDB"/>
<ellipse cx="382.674" cy="306.031" rx="30.9248" ry="18.2737" transform="rotate(20.7184 382.674 306.031)" stroke="white" stroke-width="1.5"/>
<path d="M108.725 247.711C48.191 259.917 33.5667 195.793 74.9572 121.69C168.953 -18.8782 317.405 22.8639 340.045 50.6597C362.684 78.4555 344.491 111.797 257.252 126.393C170.013 140.99 184.393 232.452 108.725 247.711Z" stroke="white" stroke-width="1.5"/>
</svg>
